<?xml version="1.0" encoding="utf-8"?>
<!-- Generator: Adobe Illustrator 18.1.0, SVG Export Plug-In . SVG Version: 6.00 Build 0)  -->
<svg version="1.1" id="Layer_1" xmlns="http://www.w3.org/2000/svg" xmlns:xlink="http://www.w3.org/1999/xlink" x="0px" y="0px"
	 viewBox="0 0 67.7 119.3" enable-background="new 0 0 67.7 119.3" xml:space="preserve">
<polygon fill="#231F20" points="67.7,102.8 33.4,119.3 0,102.8 0,0 67.7,0 "/>
<g>
	<path fill="#FFFFFF" d="M55.7,18.6c0-0.1,0-0.2,0-0.3c0-0.1,0-0.1,0-0.2c0-0.5-0.1-0.9-0.5-1c0,0-0.1,0-0.1,0c-0.2,0-0.3,0-0.4,0.1
		c-0.1,0-0.1,0-0.1,0.1c0,0-0.1,0-0.2,0.1c0,0-0.1,0-0.1,0c-0.1,0-0.3-0.1-0.4-0.1c-0.6-0.1-1.3-0.1-2,0c-1.6,0.2-2.9,0.9-2.8,1.7
		c0,0.1,0.6,1.6,0.8,2.1c0,0.1,0.1,0.2,0.1,0.3l0.1,0.3l-0.3,0.1c-0.2,0-0.3,0.2-0.4,0.3l0,0C49.2,22,49.1,22,49,22.1
		c0,0-0.1,0-0.1,0.1c-0.2,0.1-0.3,0.5-0.3,0.7c-0.1,0.3-0.3,0.4-0.5,0.6c-0.1,0-0.1,0.1-0.2,0.2c-0.1,0.1-0.2,0.2-0.3,0.2
		c-0.1,0.1-0.3,0.2-0.4,0.4l-0.1,0.1l-0.1,0c-0.1,0-0.2,0-0.3,0c-0.1,0-0.2,0-0.4,0c0,0,0,0,0,0c-0.5,0-1.3,0.4-1.3,1
		c0,0.1,0,0.2,0,0.2c0,0.1,0,0.1,0,0.2v0.1l0,0.1c-0.1,0.1-0.4,0.5-0.6,0.6c-0.2,0.1-0.3,0.2-0.5,0.3c-0.1,0-0.1,0.1-0.2,0.1
		c-0.1,0.1-0.3,0.2-0.4,0.3c-0.2,0.1-0.3,0.3-0.5,0.4c-0.1,0.1-0.2,0.1-0.4,0.1c-0.1,0-0.2,0-0.2,0.1c0,0-0.1,0-0.1,0
		c-0.2,0.1-0.3,0.1-0.5,0.1c-0.2,0-0.5,0.1-0.6,0.2c0,0,0,0.1,0,0.1c0,0,0,0,0,0.1c0,0,0,0,0,0.1l0.2,0.3l-0.4,0.1c0,0-0.1,0-0.1,0
		c0,0,0,0-0.1,0c-0.1,0-0.2,0-0.3,0c-0.1,0-0.3,0-0.4,0.1c-0.1,0-0.1,0.1-0.1,0.2c0,0.1,0,0.1,0,0.2l0,0.1l-0.1,0.1c0,0-0.1,0-0.1,0
		c-0.1,0-0.3,0.1-0.4,0.1c0,0-0.1,0-0.1,0c-0.1,0-0.4,0-0.4,0.1c0,0.1,0.1,0.2,0.2,0.3c0,0,0.1,0.1,0.1,0.2c0.2,0.3,0.1,0.5,0.1,0.5
		c0.3-0.1,0.2-0.3,0.2-0.4c-0.1-0.2-0.3-0.3-0.4-0.5c0.2-0.3,0.6-0.2,0.9-0.3c0.5-0.1-0.3-0.4,0.1-0.6c0.2-0.1,0.8,0,1-0.1
		c0.6-0.4-0.1-0.3,0.1-0.6c0.2-0.3,0.7-0.3,1-0.4c0.5-0.2,0.9-0.4,1.3-0.8c0.5-0.4,1.9-1.1,1.7-1.3c-0.2-0.2-0.2-0.4-0.2-0.7
		c0.1-0.3,0.7-0.6,0.7-0.6c0.2-0.1,0.4,0,0.6,0c0,0,0.1,0,0.1,0c0,0,0.3,0,0.3,0c0,0,0.2,0,0.2,0c0,0,0.6,0.2,0.6,0.2c0,0,0,0,0.1,0
		c0.1,0,0.1,0.1,0.2,0.1c0,0,0.1,0.1,0.2,0.1c0,0,0.2,0.2,0.2,0.2c0.1,0.1,0.1,0.2,0.2,0.2c0.1,0.1,0.1,0.2,0.1,0.3
		c0,0.1,0.2,0.2,0.2,0.2c0.1,0.1,0.3,0.2,0.4,0.2c0.1,0.1,0.6,0.1,0.6,0.2c0.1,0.1-0.2,0.3-0.2,0.3c-0.1,0.1-0.2,0.2-0.4,0.3
		c-0.1,0-0.3,0.1-0.4,0.1c-0.3,0.2-0.3,0.6-0.6,0.8c-0.3,0.2-0.7,0.3-1,0.5c-0.3,0.2-0.4,0.4-0.6,0.7c-0.2,0.3-0.4,0.8-0.7,1
		c-0.1,0.2-0.3,0.2-0.5,0.4c-0.3,0.3-0.7,0.5-1,0.8c-0.1,0.1-0.3,0.3-0.4,0.4c-0.2,0.1-0.4,0.3-0.6,0.4c-0.3,0.2-0.7,0.2-1,0.4
		c0.2-0.1,0.1-0.3,0.3-0.4c0.2-0.2,0.5-0.2,0.6-0.4c0-0.1-0.3,0.1-0.4,0.1c-0.6,0.4-1,0.8-1.6,1.3c-0.2,0.2-0.6,0.1-0.8,0.4
		c-0.2,0.2-0.1,0.5-0.4,0.7c-0.3,0.2-0.7,0.3-1.1,0.4c-0.4,0.1-0.8,0-1.3,0c-0.6,0-1.2,0-1.8,0c-0.5,0-0.7,0-1.1,0.3
		c-0.2,0.1-0.6,0-0.7-0.2c-0.1,0-0.2,0-0.2,0.1c-0.1,0.3,0.2,0.3,0.4,0.4c0,0.3,0.6,0.4,0.4,0.8c-0.3,0.1-0.2,0.6-0.4,0.7
		c-0.2,0.1-0.4-0.2-0.6-0.2c-0.3,0-0.2,0.5-0.4,0.6c-0.1,0.1-0.2,0-0.4,0c-0.1-0.1-0.2-0.2-0.2-0.2c0,0-0.1-0.1-0.1-0.1c0,0,0,0,0,0
		c0,0,0,0,0,0c-0.1,0-0.2-0.1-0.2-0.1c-0.2-0.1-0.3-0.1-0.5-0.1c-0.2,0.1-0.4,0.1-0.6,0.1c-0.1,0-0.2,0-0.2,0
		c-0.1,0-0.2-0.1-0.3-0.2c-0.2-0.2-0.2-0.4-0.5-0.5c-0.2,0-0.6,0.1-0.7-0.1c-0.3-0.3-0.3-0.6-0.8-1.2c-0.5-0.6-0.8-0.7-1.7-1
		c-0.4-0.1-0.9,0-1.3,0.1c-0.3,0.1-0.7,0.5-1,0.5c-0.4,0.1-0.4-0.2-0.6-0.4c-0.5-0.3-1,0.6-1.5,0.3c-0.6-0.5,0.1-1.7,0.2-2.2
		c0.1-0.2,0-0.2,0.2-0.4c0,0,0.3-0.3,0.2-0.3c-0.1,0-0.3,0.1-0.4,0c0-0.1,0.1-0.2,0.1-0.3c0-0.1-0.1-0.1-0.1-0.2
		c0-0.2,0.2-0.3,0.4-0.3c0.2-0.1,1-0.2,0.9-0.6c-0.1,0-0.3,0.1-0.4,0.1c-0.3,0-0.3-0.2-0.1-0.3c0.3-0.2,0.6-0.3,0.9-0.5
		c0.1-0.1,0.1-0.2,0.2-0.3c0.1-0.1,0.3,0,0.4,0c0.1,0,0.2-0.2,0.3-0.1c0.1,0.1,0,0.4-0.1,0.5c0,0.1,0,0.1,0,0.2c0,0,0.2,0.1,0.2,0
		c0,0.4-0.2,0.4-0.4,0.7c-0.2,0.3,0,0.2,0,0.4c0,0.1-0.4,0.4-0.4,0.6c0,0.1,0.2,0.2,0.2,0.3c0.1,0.2,0,0.6,0.1,0.6
		c0.5,0.4,1,0,1,0.1c-0.1,0.7,0.6,0.5,1.1,0.5c0.3,0,0.2,0.1,0.4,0.3c0.2,0.4,0.7,0.1,1,0.2c0.5,0.1,0.8,0.3,1.3,0.4
		c0.3,0,0.6,0.4,0.9,0.6c0.1,0.1,0.3,0.2,0.4,0.3c0.5,0.3,1-0.1,1.5-0.1c0.3,0,0.6,0.3,0.9,0c0.1-0.1,0.3-0.5,0.1-0.9
		c-0.1-0.1-0.2-0.1-0.2-0.3c0-0.1,0.1-0.2,0-0.3c0,0,0,0,0,0c-0.1,0-0.4,0-0.5,0c-0.2,0-0.3,0.1-0.4,0c-0.2,0-0.4,0-0.6,0
		c-0.1-0.1-0.5-0.3-0.7-0.4c-0.2-0.1-2.2,0.1-2.5-0.1c-0.9-0.7-1.1-1.5-1.1-1.6c0.3-0.5,1.4-1.6,2.3-1.8c0.2-0.1,0.6-0.4,0.7-0.4
		c0.6,0,1,0.3,1.3,0.3c0.1,0,0.1,0,0.1-0.1c0,0,0.1,0,0.2,0c0,0,0.1,0,0.2,0c0.1,0,0.2,0,0.2,0.1c0.1,0,0.2,0,0.3,0.1
		c0.1,0,0.1,0.1,0.1,0.2c0,0.1,0,0.1,0.1,0.2c0,0.1,0,0.2,0.1,0.2c0.1,0.1,0.1,0.1,0.2,0.1c0.1,0,0.1,0.1,0.1,0.2
		c0,0.1,0.1,0.2,0.1,0.3c0,0,0,0.1,0.1,0.1c0,0,0.1,0.1,0.1,0.1c0.1,0.1,0,0.1,0,0.2c0,0.2-0.1,0.4,0,0.6c0,0.1,0.3,0.1,0.4,0.2
		c0.2,0.1,0.3,0.2,0.5,0.3c0.2,0.1,0.4,0.5,0.5,0.7c0,0,0.2,0.3,0.2,0.3c0,0.3,0.5,0.7,0.6,1c0.1,0.3,0.1,0.2,0,0.5
		c0,0.1-0.4-0.1-0.4-0.1c-0.5-0.3-0.8-1.1-1.4-1.2c-0.2-0.1-0.5-0.1-0.7-0.3c-0.3,0-0.4,0-0.7,0c-0.1,0-0.2-0.1-0.2-0.2
		c0.1-0.3,0.6-0.2,0.5-0.6c-0.1-0.1-0.1,0.2-0.4,0.3c-0.2,0-0.5,0.3-0.4,0.5c0,0.1,0.1,0.3,0.2,0.3c0.1,0.1,0.3,0.1,0.4,0
		c0.2,0,0.2,0,0.4,0.1c0.2,0,0.6,0.3,0.8,0.3c0.3,0,0.3,0.2,0.4,0.4c0.1,0.1,0.1,0.1,0.1,0.1c0.4,0.4,1.4,1.2,1.5,0.5
		c0.1-0.4-0.2-0.7-0.4-0.8c-0.2-0.1-0.2-0.2-0.3-0.4c-0.1-0.2-0.1-0.3-0.1-0.5c-0.1-0.2-0.1-0.3-0.2-0.4c-0.1-0.1-0.1-0.2-0.2-0.2
		c-0.1-0.1-0.2-0.2-0.2-0.3c-0.1-0.1-0.2-0.3-0.4-0.3c-0.3-0.1-0.4-0.1-0.2-0.4c0.1-0.1,0.1-0.3,0-0.4c-0.1-0.1-0.2-0.2-0.2-0.3
		c-0.1-0.2,0-0.3-0.2-0.5c-0.1-0.1-0.3-0.4-0.2-0.5c0.4,0,0.7,0,1,0.3c0.1,0.1,0.1,0.2,0.2,0.3c0.1,0.1,0.4,0.2,0.1,0.3
		c-0.1,0-0.2,0-0.3,0c0.1,0.2,0.5,0.4,0.8,0.4c0.2,0,0.4-0.3,0.7-0.3c0.2,0,0.3,0,0.5,0.2c0.2,0.2,0,0.2,0,0.4
		c0,0.2,0.3,0.4,0.5,0.4c0.1,0,0.2-0.2,0.3-0.3c0.9-0.8,1.3,1,2.2,0.8c0.2,0,0.4-0.2,0.2-0.3c-0.1,0-0.3,0-0.4-0.1
		c-0.2-0.1-0.4-0.1-0.5-0.3c0.2,0,0.3,0,0.5-0.1c0,0,0.2-0.1,0.2-0.1l-0.6,0c-0.1,0-0.3-0.1-0.4-0.2c-0.1-0.1-0.2-0.1-0.3-0.1
		c-0.1,0-0.2,0-0.4,0c-0.3,0-0.4,0.1-0.5,0.1c0,0,0,0,0,0.1c0,0,0,0.1-0.1,0.1L37,30.1c0,0,0-0.1,0-0.1c0-0.2-0.5-0.3-0.8-0.3
		c0,0-0.1,0-0.1,0c0,0-0.1,0-0.1,0c-0.1,0-0.1,0-0.2,0c-0.1,0-0.2,0-0.3-0.1c-0.1-0.1-0.4-0.3-0.4-0.4c0-0.1,0-0.1-0.1-0.2
		C35,29,35,29,35,29c0,0-0.1-0.1-0.2-0.1c-0.1,0-0.1,0-0.2-0.1c-0.2-0.1-0.4-0.2-0.6-0.2l-0.2,0l0-0.2c0-0.1,0-0.1,0-0.2
		c0,0,0-0.1,0-0.1h0c0-0.4,0-1.1-0.2-1.4c-0.1-0.3-0.3-0.6-0.4-0.8c0-0.3-0.1-0.5-0.2-0.7c-0.2-0.3-0.2-0.6-0.2-0.7
		c-0.1-0.4-0.3-0.6-0.4-0.9c-0.1-0.3-0.3-0.9-0.4-1.1c0-0.1-0.2-0.4-0.3-0.6c0.1,0.1-0.4-0.7-0.4-0.9c-0.1-0.2-0.2-0.9-0.3-1.2
		c-0.1-0.3-0.3-1-0.4-1.1c-0.1-0.3-0.2-0.7-0.4-1c0,0-0.2-0.4-0.3-0.5c-0.1-0.2-0.3-0.4-0.4-0.6c-0.2-0.3-0.8-0.5-1.1-0.5
		c-0.2,0-0.9,0-1.2,0c-0.5,0.1-0.9,0-1.3,0.4c-0.3,0.3-0.2,1.1-0.2,1.8c0,0.6,0,1,0,1.6c0.1,1.7-0.2,3.5,0.1,5.2
		c0.1,1,0.1,2.1,0.1,3.2c0,0,0,0.1-0.1,0.2c-0.1,0.1-0.2,0.1-0.2,0.1c-0.4,0-1,0.1-1.5,0.5l0,0c-0.2,0.2-0.9,0.6-0.9,0.8
		c0,0.2,0.4,0.3,0.4,0.3L23,30.2c-0.1,0-0.2,0.1-0.2,0.1c0,0-0.1,0-0.1,0c-0.5,0.2-0.9,0.3-1.3,0.5c-0.4,0.2-0.8,0.4-1.1,0.7
		C20,31.7,20,32,19.9,32.2c-0.1,0.2-0.1,0.4-0.3,0.5c-0.1,0.1-0.2,0.2-0.3,0.3c-0.2,0.2-0.3,0.4-0.4,0.7c-0.1,0.4-0.2,0.8-0.7,1
		l-0.1,0c-0.3,0.1-0.6,0.2-0.8,0.5c0,0.1,0,0.2,0,0.4c0,0.2,0,0.3,0,0.5c-0.1,0.2-0.2,0.4-0.4,0.6c-0.1,0.1-0.1,0.2-0.2,0.3
		c-0.6,0.8-0.9,2-0.9,2.4c0,0.2,0,1.4,0.9,1.9c0.3,0.1,0.8,0.7,0.9,0.8c0.2,0.3,0.3,0.6,0.4,1c0.1,0.4,0.1,0.6,0.4,0.9
		c0.2,0.2,0.7,0.3,0.7,0.3l0.3,0l-0.1,0.3c0,0,0,0.1,0,0.1c0,0,0,0,0,0l0.2,0.1l-0.1,0.2c-0.1,0.1,0,0.2,0,0.4c0,0.1,0,0.1,0,0.2
		c0,0,0,0,0,0l0.1,0.1l0,0.1l0,0.1c-0.1,0.1-0.2,0.2-0.3,0.3c-0.1,0-0.1,0.1-0.1,0.1c-0.3,0.2-0.2,0.3-0.2,0.3c0,0,0.3,0.3,0.3,0.3
		s-0.6,0.3-0.8,0.4c-0.6,0.5-1.4,1.3-1.2,2.2c0.1,0.6,0.9,1.1,1.2,1.6c0.3,0.4,0.5,0.8,0.5,1.3c0.1,1,0.4,1.7,1.3,1.8
		c0.1,0,0.2,0,0.2,0c0,0,0.1,0,0.1,0c0.1,0,0.1-0.1,0.2-0.1c0.1,0,0.1-0.1,0.2-0.1c0.1,0,0.2,0,0.3,0.1c0,0,0.1,0,0.1,0l0.1,0l0,0.1
		c0,0,0,0,0.1,0.1c0.2,0.3,0.4,0.6,0.5,0.9c0.3,0.9-0.1,1.9-0.4,2.7c-0.2,0.5-0.3,0.8-0.3,1.1c0,1.3,0.6,2.5,0.6,2.5
		c0.1,0.2,0.2,0.3,0.3,0.5c0.3,0.5,0.5,0.9,0.7,1.5c0.1,0.3,0,0.7-0.1,1c-0.1,0.2-0.1,0.4-0.1,0.6c0,0.8-0.4,1.1-0.8,1.5l0,0
		c-0.6,0.4-0.7,0.9-1,1.5c0,0.1,0,0.1-0.1,0.2c-0.1,0.2-0.2,0.3-0.3,0.4c-0.1,0.1-0.1,0.1-0.1,0.2C20,69.8,19.9,70,20,70.2l0.1,0.1
		l-0.1,0.2c-0.1,0.3-0.2,0.6-0.2,0.9c-0.1,0.4-0.1,0.7-0.3,1l0,0.1c-0.4,0.8-0.7,1.6-0.4,2.4c0.1,0,0.2,0,0.2,0.1
		c0.2,0,0.5,0.1,0.6,0.3c0.2,0.2,0.3,0.6,0.3,1c0,0.1,0,0.1,0,0.2c0,0.6-0.2,1.2-0.4,1.8c-0.2,0.5-0.3,0.9-0.3,1.3
		c0,0.2,0.1,0.5,0.2,0.7c0.1,0.1,0.1,0.2,0.2,0.3c0,0.1,0.1,0.1,0.2,0.2c0,0,0.1,0.1,0.1,0.2c0.2,0.2,0.3,0.5,0.6,0.5h0
		c0.2,0,0.8-0.2,1.1-0.5c0.2-0.1,0.6-0.3,1.1-0.4c0.3-0.1,0.9-0.5,1-0.6c0.5-0.2,1.4-0.2,1.4-0.2c0,0.9,0,1.7,0,2.6c0,0.6,0,1.3,0,2
		v0l0,0.1c-0.1,0.6,0,1.1,0,1.7c0.2,0,0.4,0,0.7,0c0.2,0,0.4,0,0.6,0c0-0.5-0.1-1.1,0-1.7l0-2.4l0,0c0-0.4,0.1-0.9,0.1-1.4l0.1,0
		l0.8-0.1c0.2,0,0.5,0,0.7,0c0.2,0,0.5,0,0.7,0h0c0.1,0,0.3,0,0.5,0c0.1,0,0.3,0,0.5,0c0.2,0,0.5,0,0.7,0c0.2,0,0.5,0,0.7,0
		c0.1,0,1.3,0,1.7,0c0.2,0,2.2-0.1,2.9-0.1c0.3,0,0.7,0,1,0h0c0.3,0,0.7,0,1,0c0.4,0,1.3,0,1.4,0c0.2,0,0.3,0,0.5,0
		c0.2,0,0.4,0,0.5,0c0.2,0,0.3,0,0.5,0c0,0,0,0,0,0c0.1,0,1.2,0,1.3,0c0.2,0,0.4,0.1,0.5,0.3c0.2,0.2,0.2,2,0.1,2.8c0,0,0,0.2,0,0.3
		c0,0.6,0,1.8,0,1.8c0,0.1,0,0.2,0,0.3l1.1,0l0-0.3c0-0.4,0-0.8,0-1.2v0c0-0.6,0-1.3,0-2c-0.1-1.1-0.1-5.1-0.1-5.1l0-3.3
		c-0.1-0.7,0-1.4,0-2.1c0-0.2,0-1.4,0-1.9c0-0.6-0.1-1.9-0.1-1.9v0c0-0.4,0-0.9,0-1.3c0-0.3,0-0.6,0-0.9v0c0,0,0-0.5,0-0.6
		c0,0,0,0,0,0c0,0-0.1,0-0.1,0c0,0-0.1,0-0.1,0c-0.3,0-0.6,0.1-0.9,0.1c-0.2,0-0.4,0-0.6,0c-0.1,0.1-0.8,0.1-1,0
		c-0.5,0-2.3,0.1-2.5,0.1l0,0l0,0c-0.1,0-0.2,0-0.3,0c-0.1,0-0.1,0-0.2,0c-0.1,0-0.1,0-0.2,0c-0.2,0-0.4-0.1-0.6-0.1
		c-0.6-0.1-1-1.3-1-1.6c0-0.3,0.2-0.8,0.2-0.8c0,0,0.1-0.1,0.1-0.1c0.1-0.1,0.3-0.2,0.5-0.3c0,0,0.4-0.2,0.4-0.2
		c0,0,0.8-0.5,0.9-1.2c0-0.4,0-0.9,0-1.3c0-0.3,0-0.6-0.1-0.9c-0.1-0.4-0.5-0.8-0.5-0.8L37.8,58c-0.5-0.4-1-0.8-1.7-0.8
		c-0.1,0-0.1,0-0.2,0c-0.5,0-0.7,0.1-0.9,0.1c-0.3,0-0.5,0.2-0.7,0.3c-0.1,0.1-0.6,0.7-0.6,0.7c-0.3,0.2-0.3,0.6-0.4,0.9v0
		c0,0.1,0,0.1,0,0.2c0,0-0.1,1.1,0,1.5c0.1,0.5,0.3,1,0.6,1.2l0.4,0.2c0.5,0.3,0.4,1.1,0.3,1.4c0,0.2-0.2,1.2-0.6,1.3
		c-0.5,0-0.8-0.5-1-0.6c-0.1-0.1-0.3-0.1-0.5-0.1c-0.3-0.1-0.6-0.2-0.9-0.3c-0.2-0.1-0.3-0.2-0.5-0.2c-0.3-0.2-0.6-0.4-1-0.4
		c-0.2,0-0.4-0.1-0.6-0.3c-0.1-0.1-0.1-0.3-0.1-0.3l-0.1-0.1c0-0.1-0.1-0.4,0.5-2.4c0.1-0.2,0.1-0.3,0.1-0.3c0-0.2-0.1-0.5-0.2-0.8
		c-0.1-0.2-0.2-0.4-0.2-0.5l-0.1-0.2l0.2-0.1c0.1,0,0.1,0,0.2,0c0.1,0,0.3-0.1,0.4-0.1c0.2-0.1,0.4-0.4,0.3-0.6c0-0.1,0-0.2-0.1-0.3
		c-0.1-0.3-0.1-0.6-0.1-0.9c0-0.2,0.1-0.4,0.1-0.6c0.1-0.3,0.1-0.5,0.1-0.7c0-0.1,0-0.1-0.1-0.2l-0.2-0.1l0.1-0.2c0-0.1,0-0.2,0-0.2
		c0,0,0,0,0-0.1c0,0-0.1-0.1-0.1-0.1l0,0l0,0c0-0.2,0.1-0.3,0.2-0.4c0,0,0.1-0.1,0.1-0.1c0-0.1,0.1-0.2,0.1-0.3l0,0
		c0.1-0.3,0.3-0.6,0.3-0.9c0.1-0.3,0.1-0.5,0.1-0.8c0-0.1-0.1-0.3-0.1-0.3l-0.2-0.2l0.2-0.2c0.1-0.1,0.1-0.1,0.2-0.2
		c0.1-0.2,0.5-0.7,0.8-0.9l0.2-0.2l0.2,0.1c0.2,0.2,0.4,0.3,0.5,0.3c0.2,0.1,0.5,0.2,0.7,0.3c0.1,0,0.2,0.1,0.3,0.1
		c0.1,0,0.1,0,0.2,0.1c0.2,0.1,0.4,0.1,0.6,0.3c0.5,0.3,0.8,0.7,1,1.1c0.2,0.3,0.4,0.6,0.7,0.9c0.4,0.3,0.8,0.5,1.2,0.5
		c0,0,0.1,0,0.1,0c0.1,0,0.3,0,0.4,0c0,0,0.1,0,0.1,0c0.1,0,0.1,0.1,0.1,0.1c0.1,0.1,0.2,0.2,0.2,0.3c0,0.1,0.1,0.2,0.1,0.3
		c0,0.1,0,0.2,0,0.2c0,0,0,0,0,0.1c0.1,0.3,0,0.3,0,0.5v0.1c0,0,0,0.7,0,0.7c0,0.1,0,0.2,0,0.4c0,0.2-0.1,0.3-0.1,0.4
		c0,0.3-0.1,0.7-0.1,0.9c0,0.2,0,0.4,0,0.6c0,0.1,0,0.3-0.1,0.5c-0.1,0.6,0.2,0.8,0.2,0.8c0,0,0,0,0,0c0,0,0,0,0,0c0,0,0,0,0,0
		c0,0,0,0,0.1,0.1c0.2,0,0.4-0.1,0.5-0.2c0.1-0.1,0.3-0.8,0.3-1.1c0,0,0,0,0,0c0,0,0,0,0,0c0,0,0.1-0.6,0.1-0.6c0,0,0,0,0-0.1
		c0,0,0-0.2,0-0.2c0,0,0-0.1,0-0.1l0-0.1c0,0,0-0.1,0-0.1c0.1,0,0.1,0,0.1,0c0.1,0.2,0.1,0.2,0.2,0.4c0.1,0.1,0.2,0.3,0.3,0.5
		c0,0,0,0.1,0,0.1l0,0c0,0.1,0,0.1,0,0.1l0-0.1c0,0.1,0.1,0.2,0.1,0.2l0,0c0.1,0.1,0.4,0.6,0.4,0.6l0,0.1c0,0,0.5,0.9,0.5,1.1
		c0,0.1,0.1,0.1,0.1,0.1l0,0.1c0,0,0,0,0.1,0.1c0.2,0.2,0.4,0.3,0.4,0.3c0,0,0,0,0,0c0.2,0.1,0.3,0.1,0.5,0c0.1,0.4,0.6,0.3,0.6,0
		c0-0.2-0.1-0.7-0.1-0.9c-0.1-0.3-0.2-0.7-0.3-1c0-0.1-0.1-0.7-0.2-1.2c0.2,0.3,0.5,0.9,0.5,0.9c0,0,0.6,0.9,0.8,1
		c0,0,0.1,0.1,0.2,0.1c0.1,0.1,0.2,0.2,0.3,0.1c0.2-0.1,0.2-0.3,0.2-0.3c0-0.2-0.1-0.7-0.4-1.1c0-0.1-0.1-0.1-0.1-0.1
		c0,0-0.1-0.1-0.1-0.3c-0.1-0.3-0.4-0.7-0.4-0.9c-0.1-0.1-0.1-0.2-0.1-0.3c0,0,0,0,0,0c0.1,0-0.1-0.1,0,0c0,0,0.9,0.2,0.9,0.2
		c0.2,0,0.6,0,0.7-0.2c0-0.1,0.2,0,0-0.2c-0.1-0.1-0.2-0.2-0.3-0.2c0,0-0.1-0.1-0.1-0.1c-0.1,0-0.1-0.1-0.1-0.1
		c-0.1-0.1-0.2-0.1-0.3-0.2c-0.2-0.1-0.4-0.2-0.5-0.3l0,0c-0.1-0.1-0.2-0.1-0.3-0.2c-0.1-0.1-0.3-0.2-0.4-0.3c0,0-0.1-0.1-0.2-0.1
		c0,0-0.1-0.1-0.1-0.1c-0.1,0-0.1-0.1-0.2-0.1c-0.4-0.3-0.5-0.4-0.8-0.7c-0.2-0.3-0.4-0.3-0.6-0.6c-0.2-0.2-0.1-0.5-0.3-0.7
		c-0.1-0.1-0.2-0.2-0.4-0.3l0,0c0.1-0.1,0.2-0.1,0.3-0.2c0,0,0.1-0.1,0.1-0.1c0.1-0.1,0.3-0.3,0.4-0.4c0.4-0.5,0.6-0.9,0.4-1.3
		c-0.1-0.4-0.4-0.4-0.7-0.4c-0.2,0-0.3,0-0.5-0.1c-0.2-0.1-0.3-0.2-0.3-0.3c0-0.1,0-0.1-0.1-0.2c0,0-0.1-0.1-0.2-0.1
		c0,0-0.1,0-0.1-0.1c-0.1-0.1-0.3-0.1-0.4-0.1c-0.1,0-0.3-0.1-0.4-0.1c-0.2-0.1-0.5-0.3-0.7-0.5c-0.1-0.1-0.3-0.2-0.4-0.3
		c-0.2-0.1-0.3-0.2-0.5-0.4c-0.5-0.5-1-1-1.6-1.1l-0.3,0l0-0.3c0,0-0.2-0.1-0.2-0.2c0,0-0.1,0-0.1,0l-0.2-0.1l0-0.2c0,0,0,0,0,0
		c0-0.1-0.1-0.1-0.2-0.1l-0.2,0.1l-0.1-0.2c0-0.1-0.1-0.3-0.1-0.3l0,0l0,0c0-0.2,0-0.2-0.2-0.3c-0.3-0.2-0.5-0.4-0.7-0.7
		c-0.1-0.2-0.1-0.3-0.2-0.5c-0.1-0.2-0.1-0.4-0.3-0.6c-0.2-0.2-0.4-0.3-0.6-0.5c-0.3-0.2-0.6-0.3-0.8-0.6c-0.1-0.1-0.1-0.1-0.1-0.2
		c-0.1-0.1-0.1-0.2-0.2-0.3c-0.1-0.1-0.2-0.2-0.2-0.4l-0.1-0.2l0.1-0.1c0.2-0.2,1-1,1.9-1.5c0.9-0.5,0.8-1.4,0.8-1.7
		c0,0,0.3-0.4,0.4-0.5c0.1-0.1,0.2-0.2,0.3-0.3c0.2-0.1,0.2-0.2,0.2-0.3c0-0.1,0-0.1,0.1-0.2c0,0,0-0.1,0-0.1c0-0.1,0-0.1,0.1-0.2
		c0-0.1,0.1-0.1,0.1-0.1c0,0,0,0,0-0.1c0.1-0.2,0-0.4,0-0.4l0-0.2l0.2-0.1c0.1-0.1,0.4-0.2,0.7-0.2l0,0h0c0.2,0,1.2,0.1,2.2,0.1
		c1.3,0,1.7-0.1,1.9-0.2c0.3-0.1,0.4-0.3,0.6-0.6c0.2-0.3,0.4-0.7,0.9-0.8c0.2-0.1,0.3-0.2,0.5-0.3c0.2-0.1,0.4-0.3,0.7-0.4l0,0
		c0.5-0.1,0.8-0.2,1.2-0.5c0.3-0.3,0.6-0.5,0.9-0.8c0.2-0.2,0.4-0.3,0.6-0.5c0.2-0.1,0.3-0.3,0.5-0.4c0.2-0.1,0.4-0.3,0.6-0.4
		c0.1-0.1,0.1-0.2,0.2-0.4c0.1-0.2,0.2-0.4,0.4-0.6c0.4-0.4,0.9-0.6,1.3-0.9c0.4-0.2,0.8-0.5,1.2-0.8c0,0,0.1-0.1,0.1-0.1
		c0.2-0.2,0.6-0.5,0.6-0.7c0-0.3-0.5-0.5-0.8-0.6c-0.3-0.1-0.5-0.2-0.4-0.4c0-0.2,0.1-0.3,0.1-0.4l0-0.1c0.3-0.7,0.7-1.1,1.5-1.5
		c0.1-0.1,0.3-0.1,0.4-0.1c0.1,0,0.2,0,0.3,0c0.1,0,0.1,0,0.2,0c0.1,0,0.1,0,0.1,0c0.2-0.1,0.4-0.1,0.6-0.2c0.3-0.1,0.7-0.3,1.1-0.3
		c0.1,0,0.1,0,0.2,0c0,0,0.1,0,0.1,0c0.4,0,0.6-0.2,0.7-0.7c0-0.1,0.1-0.3,0.1-0.4c0-0.1,0.1-0.2,0.1-0.2c0.1-0.3,0.2-0.5,0.3-0.8
		c0-0.1,0-0.1,0-0.2c0,0,0,0,0,0l0,0c0.1-0.3,0.2-0.7,0.3-1c0-0.1,0-0.2,0.1-0.3c0-0.1,0.1-0.2,0.1-0.4
		C55.8,18.8,55.8,18.7,55.7,18.6 M30.3,32.5c0.4,0,0.7,0,1.1,0c0.1,0,0.3,0.1,0.4,0.2c0.2,0.1,0.4,0.2,0.6,0.2c0.2,0,0.3,0,0.4,0
		c0.3-0.1,0.7,0,0.7,0c0.1,0.1-0.1,0.1-0.1,0.2c0.1,0.2,0.5,0.3,0.3,0.5c-0.1,0.1-0.1,0.3-0.3,0.4c-0.4-0.3-1.1,0-1.6,0.1
		c-0.5-0.1-0.9-0.6-1.3-0.9c-0.4-0.3-1.3,0.1-1.4-0.7C29.2,32.4,30,32.5,30.3,32.5 M26.1,30.2c0.2,0.1,0.2,0.1,0.4,0
		c0.2-0.1,0.4-0.2,0.6-0.1c0.2,0.1,0.3,0.5,0.4,0.7c0.2,0.2,0.2,0.3,0.3,0.4c0.1,0.2,0.3,0.5,0.6,0.8c0.1,0.1,0.5,0.4,0.5,0.6
		c0,0.1-0.3,0.2-0.4,0.2c-0.2,0.1-0.5,0-0.6-0.1c0-0.1-0.1-0.2-0.2-0.3c-0.1-0.1-0.8,0.1-1-0.1c-0.1-0.1-0.1-0.2-0.1-0.4
		c0.1-0.4,0.2-0.7-0.3-0.4c-0.1,0.1-0.8,0.7-0.8,0.2c0-0.2,0.6-0.6,0.1-0.7c-0.2-0.1-0.4,0-0.2-0.3c0-0.1,0.2-0.1,0.2-0.2
		c0-0.1,0-0.2,0.1-0.3C25.8,30,26,30.1,26.1,30.2 M19.3,53.7c-0.2-0.3-0.4-1.6-0.5-1.8c-0.1-0.5-0.8-1-1-1.4
		c-0.3-0.4-0.6-0.5-0.5-1.1c0-0.8,0.6-1.5,1.3-1.7c0.4-0.1,0.7-0.5,1.1-0.6c0.2-0.1,0.3-0.1,0.4-0.2c0,0-0.6,0-0.7,0
		c-0.3-0.2-0.1-0.5,0.2-0.6c0.2-0.1,0.2-0.1,0.4-0.2c0.2-0.1,0.4,0,0.5-0.2c0.6-0.5,1.4-0.3,2-0.3c0.6,0,1,0,1.6-0.3
		c0.4,0,0.8,0.1,1.2,0.2c0.4,0.1,1,0,1,0s-0.6,0.1-0.5,0.1c-0.1,0-0.2,0.1-0.4,0.2c-0.7,0.2-1.8,0.4-2.5,0.8c-0.2,0-0.5,0.1-0.7,0.2
		c-0.3,0.1-0.5,0.1-1,0.4c0.4,0.1,0.7,0.1,1,0c0,0.1-0.1,0.1-0.1,0.2c-0.3,0.5-0.4,1.1-0.6,1.7c-0.1,0.4-0.1,0.3-0.4,0.6
		c-0.3,0.4-0.8,0.8-0.7,1.3c0,0.2-0.1,0.5-0.1,0.6c-0.1,0.2-0.2,0.4-0.3,0.6c0,0.2,0.1,0.5,0,0.7c-0.1,0.2-0.2,0.7-0.1,0.9
		c0.1,0.2,0.3,0.4,0.6,0.5C20.1,54.2,19.5,54.1,19.3,53.7 M23.2,77.8c-0.1,0.2-0.4,0.3-0.5,0.5c-0.1,0.2-0.6,1-0.5,0.4
		c0.1-0.2,0-0.6-0.3-0.7c-0.2-0.1-0.4,0-0.6,0c0.3,0,0.6,0.3,0.5,0.6c0,0.3-0.2,0.4-0.3,0.7c-0.1,0.4-0.2,0.7-0.6,0.8
		c-0.2,0.1-0.7,0.2-0.9,0c-0.3-0.2-0.2-0.6-0.1-0.8c0.3-1,0.6-1.4,0.6-2.1c0-0.6-0.1-1.2-0.1-1.8c0-0.4-0.1-0.5,0.3-0.8
		c0.3-0.2,0.6-0.1,0.9-0.3c0.3-0.1,0.8-0.7,1.1-0.5c0,0,0.1,0,0.1,0c0.5,0.4-0.2,2-0.2,2.5c0,0.3,0.1,0.7,0.3,0.9
		c0,0.1,0.1,0.1,0.2,0.2C23.1,77.4,23.4,77.5,23.2,77.8 M23.9,77.3c-0.1,0-0.3,0-0.3,0c-0.7-0.3-1-1.1-0.5-1.8c0,0,0.3,0,0.4-0.1
		c0.4-0.2,0.7-0.3,1-0.6c0.2-0.2,0.4-0.9,0.5-1.2c0-0.2,0.1-0.2,0.1-0.4c0,1.5,0.1,2.7,0.1,4.2C25.3,77.4,24,77.3,23.9,77.3
		 M25.1,71.4c-0.1,0.3-0.2,0.6-0.3,0.9c-0.1,0.4-0.1,0.7-0.2,1.1c-0.1,0.2-0.1,0.4-0.1,0.6c-0.1,0.2-0.3,0.4-0.5,0.6
		c-0.2,0.1-0.5,0.4-0.6,0.3c0.1-0.1,0.1-0.2,0.2-0.3c0.1-0.1,0.2-0.1,0.3-0.2c0-0.1,0.1-0.3,0.1-0.3c0.1-0.2,0.2-0.2,0.1-0.4
		c0-0.2,0-0.3-0.1-0.4c-0.3-0.3-0.6-0.5-0.7-0.5c-0.2-0.1-0.5-0.2-0.8-0.2c-0.1,0-0.6,0.1-0.7,0.3c-0.2,0.2-0.2,0.2-0.3,0.3
		c-0.1,0.1-0.1,0.1-0.2,0.2c-0.1,0-0.2,0-0.2,0c-0.1,0-0.1,0.1-0.2,0.2c-0.1,0-0.1-0.1-0.2-0.1c-0.1,0-0.5,0.1-0.6,0.2
		c-0.2,0.1-0.2,0.1-0.2,0.4c0,0-0.2,0.1-0.2,0.1c-0.1,0.2,0.1,0.5,0.3,0.7c-0.1-0.1-0.2,0-0.3-0.1c-0.3-0.4,0-1.1,0.2-1.5
		c0.2-0.3,0.2-0.6,0.3-1c0.1-0.3,0.4-0.7,0.4-1.1c0-0.4,0.2-0.6,0.2-0.9c0-0.2-0.3-0.3-0.2-0.6c0.1-0.2,0.4-0.4,0.5-0.7
		c0.1-0.3,0.2-0.6,0.3-0.8c0.3-0.5,0.9-0.9,1.4-1.3c0.3-0.3,0.2-1,0.2-1.5c0.1-0.2,0.1-0.3,0.2-0.5c0.2-0.2,0.4-0.3,0.3-0.7
		c-0.1-0.2-0.3-0.6-0.6-0.8c0-0.1-0.1-0.2-0.1-0.3c-0.2-0.6-0.5-0.8-0.6-1.2c-0.5-1.4-0.5-1.7-0.5-2.5c0-0.3,0.5-1.4,0.7-2.5
		c0-0.1,0.1-0.2,0.1-0.2c0-0.1,0.1-0.3,0.1-0.3c0-0.1,0.2-0.1,0.2-0.2c0.1-0.3,0-0.2-0.3-0.4c0,0,0,0-0.1,0c0,0,0-0.1,0-0.1
		c-0.1-0.5-0.5-0.9-0.8-1.2c-0.2-0.2-0.4-0.3-0.6-0.5c-0.2-0.1-0.4-0.1-0.5-0.3c0.9,0,2.4-0.2,2.7-0.4c0.2-0.1,0.9-0.3,1-0.4
		c0.2-0.1,0.5-0.3,0.7-0.4c0.1,0,0.2,0.1,0.3,0.1c0.2,0,0.2,0,0.1,0.2c0,0.1-0.1,0.2-0.2,0.3c-0.1,0.4,0,0.8,0.2,1.2
		c0.6,1.1-0.8,2.1-1.4,2.8c-0.3,0.3-0.5,0.9-0.3,1.2c0.1,0.2,0.5,0.4,0.8,0.5c0.2,0,0.4,0,0.6,0c0.1,0,0.2,0,0.3,0
		c-0.1,0.3-0.3,0.6-0.3,1c0,0.7-0.4,1.3-0.5,1.9c-0.1,0.3,0.2,0.6,0.2,0.9c-0.1,0.3-0.4,0.4-0.5,0.6c-0.1,0.2-0.1,0.5,0,0.7
		c0,0.2,0.3,1.1,0.6,1c0.3,0,0.5,0,0.7,0.2c0.2,0.3,0,0.6,0,0.9l0,2.1c-0.2,0.5,0.1,1,0.1,1.5C25.6,70.2,25.4,70.8,25.1,71.4 M26,64
		c-0.3,0.2-0.4,0.2-0.7,0.3c-0.5,0.2-1.2-0.5-0.8-1.1c0.2-0.2,0.5-0.4,0.5-0.7c0-0.3-0.2-0.4-0.3-0.7c-0.1-0.2,0-0.4,0-0.7
		c0-0.2,0.2-0.4,0.3-0.6c0.1-0.3,0.1-0.7,0.2-1c0.1-0.4,0.3-0.6,0.4-1c0-0.2,0-0.5,0-0.7c0.1,0,0.1-0.1,0.2-0.2
		c0.1-0.1,0.3-0.1,0.4-0.1c0.2-0.1,0.5-0.2,0.8-0.1c0.1,0,0.2,0.1,0.3,0.2c0.1,0,0.2,0,0.2,0c0,0,0.1,0,0.1,0c0.3,0.1,0.2,0.2,0,0.4
		c-0.2,0.2-0.4,0.7-0.4,0.7s0.1,2.1,0,2.6c-0.1,0.3,0.1,0.5,0,0.7c0,0.1,0.2,0.1,0.3,0.2c0.4,0.1,0.5,0.7,0.5,0.8
		c-0.3,0.4-0.7,0.5-1.1,0.6C26.7,63.8,26.4,64,26,64 M28,68c-0.1,0.3-0.3,0-0.5,0.3c-0.1,0.2-0.3,0.4-0.4,0.5
		C27,68.9,26.8,69,26.7,69c-0.1-0.2,0.1-0.5,0-0.7c0-0.1,0-0.1,0-0.2c0-0.4-0.1-0.8,0-1.2c0-0.1-0.1-0.3-0.1-0.4
		c0.1-0.2,0.3,0,0.4-0.1c0.4,0,0.7,0,1.1,0c0,0,0.1,0.1,0.1,0.2c0,0.4-0.3,0.6-0.3,1C28,67.6,28.1,67.8,28,68 M35,61.7
		c-0.3-0.1-0.5-0.4-0.5-0.7c-0.1-0.9,0.1-1.1,0.2-1.9c0.1-0.5,0.5-0.7,0.9-0.9c0.3,0,0.6-0.2,0.9,0c0.3,0.1,0.5,0.2,0.7,0.5
		c0.1,0.6,0.2,1.3,0.1,1.9c0,0.3,0,0.7-0.2,0.9c-0.2,0.3-0.4,0.5-0.7,0.5C36.2,61.9,35.4,61.9,35,61.7 M30.6,66.5
		c1.4,0,2.9-0.1,4.3,0c0.7-0.2,1.5,0.1,2.2,0c0.6,0.1,1.1-0.1,1.6,0c0.6,0.1,1.2,0,1.7,0c0.2,0,0.5,0,0.7,0c0.3,0,0.6,0,0.9,0l0.5,0
		c0.2,0.5,0,3,0.1,3.7c0,0.5,0.1,1,0,1.5l0,1.4c-0.2,0.9,0.2,1.7,0,2.6c0.1,0.6,0.1,1.2,0,1.8c0.1,0.4,0.1,1,0,1.4
		c-0.5,0.3-1,0.1-1.6,0.2c-0.3,0-1.2,0-1.2,0l-1.4,0c-0.7,0-1.3,0.1-2,0c-0.5,0.1-5,0.1-5.2,0.1l-1.5-0.1c0-0.1,0-0.3,0.1-0.3
		c0.2,0,0.4-0.1,0.5-0.3c-0.1-0.3-0.5-0.1-0.7-0.2c-0.3-0.1-0.8-0.1-1.1-0.3c-0.7-0.4-1.4-0.5-2.1-0.7c-0.2-0.3,0-0.7-0.1-1
		c0.1-0.6,0-1.2,0-1.8l0.1-0.1c0-0.8-0.1-1.5-0.2-2.3c0.1-0.6,0-1.3,0-1.9c0-0.3-0.1-0.4,0.1-0.5c0.2-0.2,0.5-0.4,0.6-0.5
		c0.2-0.1,0.3-0.2,0.4-0.3c0.2-0.2,0.1-0.1,0.4-0.2c0.2-0.1,0.3-0.1,0.3-0.3c0.1-0.2,0-0.4,0-0.6c0-0.3,0.2-0.6,0.4-0.8
		c0.1-0.2,0.2-0.4,0.3-0.5C29.6,66.3,30.1,66.5,30.6,66.5 M29.9,60.1c-0.1,0.3-0.1,0.4-0.2,0.7c0,0.3-0.1,0.5-0.2,0.8
		c0,0.2-0.2,0.7-0.2,0.8c0,0.1,0.2,0.4,0,0.4c-0.3,0-0.4,0.2-0.6,0c0-0.2-0.1-0.4-0.2-0.6c-0.2-0.1-0.5-0.2-0.5-0.4
		c0.2-0.1,0-0.3,0-0.4c0.1-0.2,0.1-0.3,0-0.6c0,0-0.2-2-0.1-2c0,0,0.2-0.3,0.2-0.3c0.2,0,0.4,0.1,0.6,0.1c0.1,0,0.8-0.1,0.9,0
		c0.1,0.1,0.1,0.1,0.2,0.2c0,0,0,0.1,0,0.1C29.6,59.4,30.1,59.5,29.9,60.1 M32.5,49c-0.1,0.2-0.2,0.3-0.3,0.5
		c-0.2,0.3-0.5,0.5-0.7,0.8c-0.1,0.2-0.2,0.4-0.3,0.6c0,0.1-0.1,0.2-0.2,0.2c-0.2,0.2-0.4,0.2-0.6,0.4c0.2,0.2,0.4,0.1,0.6,0.1
		c0.1,0,0.1,0.1,0.2,0.2c0,0.5-0.1,0.9-0.3,1.3c-0.2,0.3-0.4,0.6-0.6,0.9c-0.1,0.3,0.1,0.3,0,0.6c0,0.1-0.4,0.5-0.5,0.4
		c0.2,0.3,0.6-0.1,0.8,0.4c0.1,0.4-0.2,1-0.2,1.4c0,0.2,0,0.2,0,0.4c0.1,0.2,0.2,0.3,0.1,0.5C30.4,58,30,57.9,29.7,58
		c0,0-0.7,0.1-0.7,0.1c0-0.4,0.7-0.2,0.9-0.3c0.5-0.2,0.1-0.7-0.2-0.8c-0.1,0-0.3-0.2-0.4-0.2c-0.4-0.1-0.6,0-1-0.1
		c-0.4-0.1-0.8-0.1-1.2-0.1c-0.4,0-0.7-0.1-1.1,0.2c-0.1,0.1-0.7,0.5-0.8,0.6c-0.1,0.1-0.4,0.2-0.5,0.2c-0.5,0.2-0.4,0.9,0.2,0.8
		c-0.2,0.1-0.7,0-0.9-0.1c-0.4-0.3,0.4-1,0.6-1.2c0.4-0.3,0.6-0.7,0.9-1c0.2-0.4,0.5-0.8,0.4-1.2c-0.1-0.4-0.2-0.9-0.3-1.3
		c0-0.2,0-0.8,0.1-1c0.2-0.2,0.7,0,0.8-0.3c0.1-0.2-0.7-0.3-0.8-0.5c-0.1-0.2,0.1-0.3,0.3-0.4c0.3-0.2,0.2-0.4,0.2-0.6
		c0-0.1-0.1-0.3,0.5-0.6c0.1,0,0-0.1,0-0.2c0.2-0.3,0.7,0,0.9-0.4c0.1-0.3-0.5-0.2-0.5-0.5c0-0.1,0.2-0.1,0.7-0.4
		c0.2-0.1,0.9-0.6-0.1-0.3c-0.3,0.1-0.9,0.3-1.1,0.5c-0.4,0.2,0.1,0.3,0.2,0.5c0.1,0.4-0.8,0.3-0.9,0.5c0,0.1-0.2,0.1,0,0.3
		c0.3,0.1-0.7,0.4-1,0.4c-0.2,0-0.1,0.1-0.2,0.2c0.4,0.2,0.6,0,0.9,0c0,0.1-0.4,0.2-0.5,0.4c0,0.2,0,0.1,0,0.3
		c-0.1,0.3,0.3,0.5,0.1,0.6c-0.4,0.1-0.8,0.3-1.1,0.5c-0.5,0.3-1.4,0.7-1.9,0.6c-0.3,0-1,0.1-1.3,0.1c-0.5,0-0.3-0.3-0.3-0.7
		c0-0.1,0-0.2,0-0.3c0-0.3,0.2-0.5,0.4-0.8c0.2-0.3-0.1-0.6,0.1-0.9c0.1-0.3,0.4-0.5,0.6-0.7c0.2-0.2,0.4-0.5,0.4-0.7
		c0-0.1,0.2-0.9,0.2-1c0.1-0.4,0.6-0.9,0.6-0.9s0.2,0,1.1-0.3c0.4-0.1,1.3-0.4,2.1-0.7c0.4-0.1,2.1-0.5,2.3-0.6
		c0.2-0.1,0.1-0.2,0.5-0.2c0.4-0.1,0.7-0.2,1.1-0.3c0.2-0.1,0.5-0.1,0.8-0.1c0.1,0,0.2,0,0.3,0c0.2,0,0.4,0.1,0.6,0.2
		c0.1,0.1,0.3,0.2,0.4,0.3c0.1,0.1,0.2,0.4,0.3,0.6c0.1,0.2,0.1,0.6,0.1,0.9c0.1,0,0.4,0,0.5,0.3C32.9,47.6,32.7,48.4,32.5,49
		 M43.5,55.2c0.1,0,0.1,0.1,0.2,0.1c0.1,0.1,0.2,0.2,0.4,0.2c0.3,0.1,0.4,0.2,0.7,0.4c0.1,0.1,0.2,0.2,0.4,0.2
		c-0.1,0.3-0.4,0.1-0.6,0.1c-0.2-0.1-0.7-0.1-0.9-0.3c-0.1-0.1-0.1-0.2-0.2-0.2c-0.1-0.1-0.2-0.3-0.3-0.4c-0.1-0.1-0.2-0.1-0.2-0.2
		c0,0,0-0.1-0.1-0.1c0-0.1-0.3-0.3-0.3-0.4C42.6,54.7,43.4,55.1,43.5,55.2 M41.1,53c0.2,0.2,0.3,0.3,0.5,0.5
		c0.2,0.4,0.5,0.7,0.7,1.1c0.1,0.1,0.1,0.2,0.2,0.3c0.1,0.2,0.2,0.3,0.4,0.5c0.2,0.2,0.4,0.3,0.5,0.7c0,0.1,0.1,0.2,0.1,0.3
		c0,0.2,0.1,0.2,0.2,0.4c0.1,0.1,0.2,0.3,0.2,0.5c0.1,0.2,0.1,0.3,0.2,0.5c0,0.1,0.1,0.3,0.2,0.4c0.1,0.2,0.3,0.6,0.4,0.8
		c0,0,0,0.1,0,0.1c-0.1,0.1-0.1,0.1-0.2,0c0-0.1-0.1-0.1-0.1-0.2c0,0-0.1-0.1-0.2-0.2c-0.1-0.1-0.1-0.2-0.2-0.3c0,0-0.1-0.1-0.1-0.1
		c-0.1-0.1-0.1-0.2-0.2-0.3c-0.2-0.3-0.3-0.5-0.5-0.8c-0.2-0.2-0.4-0.5-0.5-0.8c-0.2-0.3-0.1-0.2-0.3-0.3c-0.1,0-0.2,0-0.1,0.2
		c0.2,0.5,0.5,0.9,0.5,1.5c0.1,0.3,0.1,0.7,0.2,1c0,0.5,0.3,0.9,0.3,1.3c-0.1,0.1-0.2,0.1-0.2,0c0-0.1,0-0.2-0.1-0.2
		c0-0.1-0.1-0.2-0.2-0.2c-0.1-0.2-0.1-0.5-0.2-0.7c-0.1-0.2-0.3-0.5-0.3-0.7c0-0.1-0.1-0.2-0.1-0.3c0-0.1,0-0.2-0.1-0.3
		c0-0.1-0.2-0.2-0.2-0.2c-0.1-0.1-0.1-0.2-0.1-0.3c-0.1-0.2-0.1-0.3-0.2-0.4c0,0-0.1,0.1-0.1,0.1c0,0,0,0.1,0.1,0.2
		c0,0.2,0,0.3,0.1,0.5c0.1,0.2,0.3,0.4,0.3,0.6c0,0.5,0.3,0.7,0.4,1.1c0.1,0.1,0.4,0.7,0.4,0.9c0,0,0,0-0.1,0c0,0-0.1,0-0.1,0
		c-0.1,0-0.1,0-0.2-0.1c0,0-0.1,0-0.1-0.1c-0.1-0.1-0.1-0.2-0.2-0.2c-0.2-0.3-0.5-1-0.6-1.2c-0.2-0.4-0.6-1.1-0.7-1.5
		c0-0.1-0.1-0.2-0.1-0.2c-0.1-0.2,0,0-0.1-0.2c-0.1-0.1-0.2-0.4-0.4-0.6l0,0l0,0c0,0,0,0,0,0l0,0c0,0-0.1,0-0.2,0l0,0l0,0.1l0,0.1
		c0,0.1-0.1,0.1-0.1,0.2c0,0.1-0.1,0.2-0.1,0.3c0,0.1,0,0.3-0.1,0.4v0c0,0.1-0.1,0.8-0.1,0.9l0,0c0,0.1-0.1,0.3-0.1,0.3
		c0,0.1,0,0.2-0.1,0.3c0,0-0.1,0.2-0.1,0.3c0,0,0,0.1,0,0.1c-0.1,0-0.2,0-0.2,0c-0.1-0.1,0.2-1,0.1-1.2c-0.1-0.4,0.1-1,0.1-1l0,0
		c0-0.1,0-0.2,0-0.2c0.1-0.4-0.1-0.7-0.1-1c0-0.2,0-0.2,0.1-0.3c0,0,0-0.1,0-0.1c0.1-0.3,0-0.5,0-0.6l0,0l0-0.1c0-0.4-0.2-0.7-0.5-1
		c-0.1-0.2-0.3-0.4-0.4-0.6l-0.1-0.1l0.1-0.1c0.2-0.4,0.6-0.5,1-0.6c0,0,0.1-0.1,0.1-0.1c0-0.1,0.1-0.1,0.2-0.2
		c0.1-0.1,0.2-0.1,0.3-0.1c0,0,0,0,0.1,0l0.1,0l0.1,0.1c0,0,0.1,0.1,0.1,0.1c0.1,0.1,0.2,0.2,0.3,0.4c0,0.2,0.1,0.4,0.3,0.6
		C40.9,52.6,41,52.9,41.1,53 M32,42.3c0.3,0.3,1.2,0.6,1.2,1.1c0.1,0.1,0,0.4,0.1,0.5c0.1,0.4,0.2,0.9,0.7,1.1
		c0.3,0.1,0.4,0.4,0.5,0.7c0,0.3-0.2,0.4-0.3,0.6c-0.1,0.1-0.1,0.2-0.1,0.3c0,0.1,0,0.2-0.1,0.3C34,46.9,34,47,33.9,47.1
		c0,0.1-0.1,0.3,0,0.3c0.1,0.1,0.1-0.1,0.2-0.1c0.1-0.3,0.3-0.4,0.4-0.7c0.1-0.2,0.2-0.6,0.4-0.7c0.3,0-0.1,0.9-0.1,1
		c-0.1,0.1-0.3,0.5-0.1,0.3c0.2-0.1,0.2-0.2,0.3-0.3c0.2-0.2,0.4-0.4,0.6-0.5c0.2-0.1,0.5,0,0.7,0c0.3,0.1,0.5,0.3,0.8,0.5
		c0.3,0.3,0.5,0.7,0.9,0.9c0.2,0.1,0.3,0.3,0.4,0.4c0.2,0.1,0.3,0.2,0.5,0.4c0.3,0.2,0.9,0.1,1.2,0.3c0.3,0.1,0.1,0.2,0.2,0.4
		c0.2,0.6,1.7,0.2,1.7,0.9c0,0.3-0.4,0.9-0.8,1.1c0.1-0.2,0.6-0.7,0.5-0.9c-0.1-0.5-1.4,0.2-1.7,0.3c-0.2,0.1-0.6,0-0.8,0.2
		c-0.2,0.2-0.1,0.4-0.5,0.5c-0.3,0.1-0.6,0.2-0.8,0.4c-0.1,0.1-0.4,0.5-0.3,0.7c0.1,0.1,0.4,0.2,0.5,0.2c0,0,0,0,0,0.1
		c-0.2,0.1-0.7-0.1-0.8-0.2c-0.2-0.1-0.2-0.3-0.4-0.5c-0.1-0.2-0.3-0.3-0.4-0.5c-0.2-0.4-0.8-1-1.2-1.2c-0.6-0.3-1.1-0.4-1.4-0.6
		c-0.4-0.2-0.8-0.7-0.8-0.7s0.2-0.4,0.2-0.6c0.1-0.4,0.1-0.7,0.1-1.1c0-0.4,0.1-0.9-0.3-1.1c-0.2-0.1-0.4-0.3-0.4-0.6
		c-0.4-1.3-1.1-1.5-2.3-1.5c-0.7,0-1.8,0.9-2.1-0.2c0-0.2-0.5-0.8-0.6-0.9c-0.1-0.1-0.3-0.1-0.4-0.1c-0.1,0-0.2-0.1-0.3-0.1
		c-0.1,0-0.2,0-0.3,0c-0.1-0.1-0.3-0.4-0.4-0.6c-0.1-0.1-0.1-0.1-0.1-0.2c-0.1-0.1-0.3,0-0.4,0.1c0,0-0.1,0.1-0.1,0.1
		c0,0-0.1,0-0.1,0c0,0,0,0,0,0c-0.1-0.1-0.1-0.3-0.1-0.4c0.1-0.1,0-0.3,0-0.4c-0.5-0.2-0.1-0.8-0.3-1.1c0-0.3-0.1-0.6-0.4-0.7
		c-0.5,0-0.2,0.7-0.5,0.8c-0.3,0.2-0.5-0.3-0.7-0.4c-0.1-0.1-0.3-0.2-0.5-0.2c-0.3,0-0.5,0.2-0.8,0.2c-0.2,0-0.5,0-0.7-0.1
		c-0.2-0.1-0.3-0.2-0.6-0.2c0.1,0.1,0.4,0.3,0.5,0.4c0.2,0.1,0.3,0.1,0.5,0.1c0.4,0,0.9,0,1.2,0.1c0.4,0.2,0.5,0.7,1,0.8
		c0.6,0.2,0.2-0.5,0.6-0.6c0,0.1,0,0.3,0,0.5c0,0.3,0,0.8,0.3,1.6c0.1,0.1,0.2,0.2,0.4,0.2c0.1,0,0.2,0,0.2,0c0.1,0,0.2,0,0.3-0.1
		c0,0.1,0.1,0.1,0.1,0.2c0.1,0.1,0.1,0.3,0.4,0.4c0.2,0.1,0.4,0,0.5,0c0.4,0,0.7,0.7,0.8,0.8c0.1,0.2,0.2,0.3,0.3,0.4h0
		c0,0-0.1,0.1-0.2,0.2c-0.1,0-0.6,0.3-1,0.2c-0.2,0-1.2-0.3-2-0.4c-1.1-0.2-0.5,0.4-2.3,0.2c-0.4,0.1-0.9-0.2-1.3-0.1
		c-0.3,0-0.9,0.5-1.2,0.4c-0.3-0.1,0.2-0.6,0.4-0.7c-0.3,0.1-0.7-0.1-0.3-0.4c0.2-0.1,0.8-0.2,1.1-0.2c-0.5-0.4-1.7,0-2.2-0.3
		c-0.7-0.3-0.5-1.2-0.9-1.7c-0.1-0.2-0.2-0.3-0.4-0.4c-1.7-1.2-1.6-1.9-1.4-3c0.1-1,0.8-1.5,1.3-2.2c0.2-0.3-0.1-0.9,0.3-1.1
		c0.4-0.3,0.9-0.4,1.3-0.8c0.3-0.4,0.3-0.7,0.4-1.1c0.1-0.4,0.3-0.3,0.4-0.6c0.2-0.4,0.3-0.9,0.7-1.2c0.5-0.4,1-0.7,1.6-0.9
		c0.1,0,0.2-0.1,0.3-0.1c0.1,0,0.2,0,0.4-0.1c0,0.2,0,0.3-0.1,0.5c0,0.1-0.2,0.2-0.2,0.4c0,0.2,0.3,0.2,0.4,0.1c0,0.4-0.3,0.7-0.4,1
		c-0.1,0.4-0.2,0.7-0.1,1.1c0.1,0.4,0.2,0.8,0.7,0.9c0.3,0,1.5-0.5,1.2,0.3c-0.1,0.2-0.4,0.4-0.5,0.5c-0.2,0.1-0.5,0-0.6,0
		c-0.1,0-0.2,0.1-0.3,0.2c0.4-0.1,0.8,0.1,1.1-0.1c1.1-0.6,1.7-1.8,3.2-1.7c0.9,0.1,1.4,0.7,1.8,1.4c0.2,0.4,0.5,0.8,0.6,1.3
		c0.1,0.2,0.2,0.5,0.1,0.7c0,0.3-0.2,0.5-0.1,0.8c0,0.2,0.3,0.3,0.3,0.6c0,0.2-0.1,0.3-0.1,0.5c0,0.2,0.2,0.4,0.3,0.6
		c0.1,0.2,0,0.5,0.1,0.7c0.1,0.2,0.4,0.4,0.6,0.6C31.3,41.4,31.5,42,32,42.3 M33.1,38.8c-0.6,0.5-1.3,0.9-1.9,1.4
		c-0.1,0.1-0.1,0.2-0.3,0.2c-0.3,0-0.2-0.5-0.2-0.6c0-0.3-0.2-0.3-0.3-0.5c-0.1-0.2,0.1-0.4,0.1-0.6c0-0.4-0.3-0.7-0.3-1
		c0-0.4,0.1-0.3,0-0.7c0-0.1,0.3,0.3,0.3,0.3c0.2,0.2,0.6,0.3,0.9,0.2c0.1,0,0.4-0.2,0.5-0.2c0,0,0,0,0.1,0c0.1,0.1,0.3,0.3,0.4,0.3
		c0.5,0.5,0.9,0.5,1.2,0.1C33.7,38.1,33.4,38.5,33.1,38.8 M55,17.6c0.1,0,0.2,0.1,0.3,0.3c0,0,0,0,0,0.1c0,0.1,0,0.5-0.2,0.7
		c0,0-0.1-0.5-0.2-0.6C54.8,17.8,54.9,17.6,55,17.6 M49.9,18.8c-0.1,0-0.1-0.1-0.1-0.2c0,0,0,0,0-0.1c0,0,0-0.3,0.1-0.4
		c0.1-0.1,0.1-0.1,0.2-0.1c0.1,0,0.1-0.1,0.2-0.2c0.3-0.2,0.5-0.2,0.8-0.3c0.3-0.1,0.5-0.1,0.8-0.1c0.1,0,0.2,0,0.2,0
		c0,0,0.4,0,0.3,0c0.3,0,0.6,0,0.8,0.1c0.2,0,0.5,0.2,0.6,0.3c0,0.1,0.1,0.1,0.1,0.2c0,0.1-0.1,0.2-0.1,0.2l-0.1,0.1l-0.1,0.1
		c0,0,0,0,0,0c0,0-0.2,0.2-0.2,0.2s-0.3,0.2-0.4,0.2c0,0-0.2,0.1-0.2,0.1c0,0-0.2,0-0.2,0.1c0,0-0.3,0.1-0.4,0.1
		c-0.1,0-0.3,0-0.4,0.1c-0.1,0-0.3,0-0.3,0c0,0-0.1,0-0.3,0c-0.1,0-0.4,0-0.4,0c-0.2,0-0.3,0-0.4-0.1 M55.6,18.9
		c0,0.1,0,0.2-0.1,0.3c0,0.1-0.1,0.1-0.1,0.2c0,0.2-0.2,0.6-0.3,1c0,0,0,0,0,0c0,0,0,0,0,0.1c0,0.2-0.1,0.4-0.2,0.5
		c0,0.1-0.1,0.2-0.1,0.3c0,0,0,0,0,0c-0.1,0.3-0.1,0.4-0.3,0.6l-0.1,0.5c-0.1,0.2,0,0.1-0.2,0.3c-0.4,0.1-0.7-0.3-1.1,0
		c-0.5,0.2-0.8,0.5-1.4,0.4c-0.5,0-0.9-0.1-1.3,0.3c-0.2,0.2-0.4,0.4-0.6,0.5c-0.3,0.2-0.4,0.3-0.5,0.6c-0.1,0.2-0.2,0.4-0.3,0.6
		c0,0-0.1,0.1-0.1,0.2c-0.1-0.1-0.2-0.3-0.3-0.4l0,0c0,0,0,0,0,0c0,0-0.3-0.3-0.5-0.4c0,0-0.2-0.1-0.3-0.1c-0.1,0-0.1-0.1-0.1-0.1
		c0,0-0.2,0.1-0.2-0.1c0-0.1,0.1-0.1,0.2-0.2c0.2-0.2,0.3-0.3,0.6-0.5c0.2-0.1,0.4-0.4,0.4-0.6c0.1-0.2,0-0.5,0.2-0.6
		c0.1,0,0.2-0.1,0.3-0.1c0.2-0.1,0.3-0.3,0.4-0.4c0,0,0.2-0.1,0.2-0.1c0.2-0.1,0.3-0.1,0.4-0.1c0.3,0.2,0.7,0.5,1.2,0.5
		c0.4,0,0.7,0.1,1.1,0.1c0.6-0.1,1.1-0.3,1.6-0.6c0.1-0.1,0.1-0.2,0.2-0.2c0,0,0.1-0.1,0.1-0.1c0.1-0.1,0.1-0.2,0.1-0.3
		c0.1-0.1,0.2-0.3,0.2-0.3c0.1-0.2,0.1-0.4,0.2-0.7c0-0.2,0.1-0.4,0.2-0.5c0-0.1,0-0.1,0.1-0.2c0-0.1,0.1-0.2,0.1-0.2
		c0-0.1,0.1-0.1,0.1-0.2c0,0,0.1,0,0.1-0.1c0,0,0.1-0.1,0.1-0.1C55.6,18.7,55.6,18.8,55.6,18.9 M25.5,86"/>
	<path fill="#FFFFFF" d="M31,29.8c0,0.1,0.2,0,0.2,0c0.2,0,0.3,0.2,0.4,0.2c0.1,0,0.4-0.1,0.5,0c0.1-0.1-0.1-0.2-0.1-0.3
		c0-0.1,0-0.2,0-0.3c0-0.1,0-0.1,0-0.2c-0.1-0.2-0.4-0.2-0.5-0.2c-0.2,0-0.3,0-0.5,0c-0.1,0-0.3,0.1-0.4,0.2c0,0-0.2,0.1-0.1,0.1
		c0,0.1,0.1,0,0.2,0c0.1,0,0.2-0.1,0.3-0.1c0.1,0.1,0,0.1-0.1,0.2c-0.1,0.1-0.3,0.1-0.4,0.1c-0.1,0-0.1-0.1-0.2,0
		c-0.1,0.1-0.1,0.2,0,0.2c0,0,0.1-0.1,0.1-0.1c0.1,0,0.3,0,0.2,0.1c0,0-0.2,0.3-0.3,0.3c0.1,0,0.3-0.2,0.4-0.2
		c0.1-0.1,0.3-0.4,0.4-0.3C31.1,29.6,31,29.7,31,29.8"/>
</g>
</svg>
