<?xml version="1.0" encoding="utf-8"?>
<!-- Generator: Adobe Illustrator 18.1.0, SVG Export Plug-In . SVG Version: 6.00 Build 0)  -->
<svg version="1.1" id="Layer_1" xmlns="http://www.w3.org/2000/svg" xmlns:xlink="http://www.w3.org/1999/xlink" x="0px" y="0px"
	 viewBox="0 0 27.9 27.9" enable-background="new 0 0 27.9 27.9" xml:space="preserve">
<path fill="#231F20" d="M14,0C6.2,0,0,6.2,0,14c0,7.7,6.2,14,14,14c7.7,0,14-6.2,14-14C27.9,6.2,21.7,0,14,0 M20.8,11.3L20.8,11.3
	c-0.5,0.2,0.5,3.1-2.3,6.7c0,0-2.1,2.8-6,3.4c-1.6,0.2-3.9,0.4-6.3-1.4c0,0,2.4,0.3,4.8-1.5c0,0-2.5-0.2-3-2.3c0,0,1.1,0,1.4,0
	c0,0-2.6-0.9-2.6-3.4c0,0,0.9,0.4,1.4,0.3c0,0-2.2-1.7-0.9-4.4c0,0,2.4,3.3,6.8,3.4c0,0-0.4-2.9,2.1-3.8c0,0,2.1-0.9,3.6,0.8
	c0,0,1.7-0.3,2-0.8c0,0-0.1,1-1.3,1.8c0,0,1.1,0,1.8-0.4C22.3,9.8,21.3,11.1,20.8,11.3"/>
</svg>
