<?xml version="1.0" encoding="utf-8"?>
<!-- Generator: Adobe Illustrator 18.1.0, SVG Export Plug-In . SVG Version: 6.00 Build 0)  -->
<svg version="1.1" id="Layer_1" xmlns="http://www.w3.org/2000/svg" xmlns:xlink="http://www.w3.org/1999/xlink" x="0px" y="0px"
	 viewBox="0 0 28 28" enable-background="new 0 0 28 28" xml:space="preserve">
<rect x="0" y="0" fill="none" stroke="#FFFFFF" stroke-miterlimit="10" width="28" height="28"/>
<path fill="#FFFFFF" d="M7.1,7.5c0,0,2.6,3.7,7.5,3.7c0,0-0.4-3.2,2.4-4.2c0,0,2.4-1,3.9,0.9c0,0,1.8-0.3,2.2-0.9
	c0,0-0.1,1.1-1.4,1.9c0,0,1.2,0,2-0.5c0,0-1.2,1.4-1.7,1.7l0,0c-0.5,0.2,0.5,3.4-2.5,7.3c0,0-2.3,3.1-6.6,3.7
	c-1.7,0.2-4.3,0.5-6.9-1.5c0,0,2.6,0.3,5.2-1.6c0,0-2.7-0.2-3.3-2.5c0,0,1.2,0,1.5,0c0,0-2.9-1-2.8-3.7c0,0,1,0.4,1.5,0.4
	C8.1,12.4,5.6,10.5,7.1,7.5"/>
</svg>
