<?xml version="1.0" encoding="utf-8"?>
<!-- Generator: Adobe Illustrator 18.1.0, SVG Export Plug-In . SVG Version: 6.00 Build 0)  -->
<svg version="1.1" id="Layer_1" xmlns="http://www.w3.org/2000/svg" xmlns:xlink="http://www.w3.org/1999/xlink" x="0px" y="0px"
	 viewBox="0 0 28 28" enable-background="new 0 0 28 28" xml:space="preserve">
<rect x="0" y="0" fill="none" stroke="#FFFFFF" stroke-miterlimit="10" width="28" height="28"/>
<polygon fill-rule="evenodd" clip-rule="evenodd" fill="#FFFFFF" points="22.9,9.9 22.9,11.1 20.2,11.1 20.2,13.8 19.1,13.8 
	19.1,11.1 16.4,11.1 16.4,9.9 19.1,9.9 19.1,7.2 20.2,7.2 20.2,9.9 "/>
<path fill-rule="evenodd" clip-rule="evenodd" fill="#FFFFFF" d="M13.5,16c-0.4-0.3-1.3-1.1-1.3-1.5c0-0.5,0.2-0.8,0.9-1.4
	c0.8-0.6,1.4-1.5,1.4-2.5c0-1.2-0.6-2.4-1.6-2.8h1.6L15.7,7h-4.9c-2.2,0-4.3,1.6-4.3,3.6c0,2,1.5,3.6,3.7,3.6c0.2,0,0.3,0,0.5,0
	c-0.1,0.3-0.2,0.6-0.2,0.9c0,0.5,0.3,1,0.7,1.4c-0.3,0-0.6,0-0.9,0c-2.7,0-4.8,1.7-4.8,3.5c0,1.8,2.3,2.9,5,2.9
	c3.1,0,4.8-1.8,4.8-3.5C15.3,17.8,14.8,16.9,13.5,16 M10.9,13.6c-1.3,0-2.5-1.4-2.7-3.1C8,8.8,8.9,7.6,10.1,7.6c1.3,0,2.5,1.4,2.7,3
	C13,12.3,12.2,13.6,10.9,13.6 M10.4,22c-1.9,0-3.2-1.2-3.2-2.6c0-1.4,1.7-2.6,3.6-2.5c0.4,0,0.9,0.1,1.2,0.2c1,0.7,1.8,1.1,2,1.9
	c0,0.2,0.1,0.3,0.1,0.5C14,20.8,13.1,22,10.4,22"/>
</svg>
