<?xml version="1.0" encoding="utf-8"?>
<!-- Generator: Adobe Illustrator 18.1.0, SVG Export Plug-In . SVG Version: 6.00 Build 0)  -->
<svg version="1.1" id="Layer_1" xmlns="http://www.w3.org/2000/svg" xmlns:xlink="http://www.w3.org/1999/xlink" x="0px" y="0px"
	 viewBox="0 0 28 28" enable-background="new 0 0 28 28" xml:space="preserve">
<rect x="0" y="0" fill="none" stroke="#FFFFFF" stroke-miterlimit="10" width="28" height="28"/>
<path fill="none" stroke="#FFFFFF" stroke-miterlimit="10" d="M23,11.1c-0.1,0.2-0.1,0.5-0.2,0.7c-0.2,0.7-0.5,1.4-1.1,2
	c-0.9,0.9-1.8,1.9-2.8,2.8c-1.8,1.6-4.5,1.6-6.3-0.1c-0.5-0.5-0.9-1.1-1.3-1.6c-0.2-0.3-0.1-0.5,0.1-0.8c0.5-0.5,1-0.9,1.7-0.9
	c0.1,0.7,0.5,1.2,1,1.6c0.9,0.8,2.3,0.8,3.1,0c1-0.9,1.9-1.8,2.8-2.8c0.9-1,0.7-2.4-0.3-3.4c-1-1-2.4-1-3.4-0.2
	c-0.5,0.5-1,1-1.6,1.5c-0.1,0.1-0.2,0.2-0.4,0.1c-0.5,0-1-0.2-1.4-0.2c-0.5,0-0.9,0.1-1.5,0.2c0.2-0.3,0.4-0.5,0.6-0.7
	C13,8.7,13.9,7.8,14.7,7c0.7-0.7,1.6-1.1,2.6-1.3c0,0,0.1,0,0.1-0.1h1c0.1,0,0.1,0.1,0.2,0.1c2.1,0.4,3.4,1.6,4.1,3.5
	c0.1,0.3,0.1,0.5,0.2,0.8V11.1z"/>
<path fill="none" stroke="#FFFFFF" stroke-miterlimit="10" d="M15.9,15c-0.4-0.6-0.7-1.1-1.1-1.5c-0.9-0.9-2.4-0.9-3.4,0
	c-0.9,0.8-1.7,1.7-2.6,2.6c-1,1-0.9,2.5,0.2,3.5c1,1,2.5,1.1,3.5,0.1c0.5-0.5,1-1,1.5-1.5c0.1-0.1,0.2-0.2,0.3-0.1
	c0.5,0,1,0.2,1.4,0.2c0.5,0,0.9-0.1,1.5-0.2c-0.1,0.2-0.3,0.4-0.4,0.5c-0.9,1-1.9,2-2.9,2.9c-1.4,1.3-3.1,1.6-4.9,0.9
	c-1.7-0.7-2.9-2-3.2-3.9c-0.3-1.6,0.2-3,1.4-4.2c0.8-0.8,1.5-1.5,2.3-2.3c2.5-2.5,6.4-1.8,8,1.5c0.1,0.2,0.1,0.4-0.1,0.6
	C17.1,14.6,16.6,15.1,15.9,15z"/>
</svg>
